<svg id="Layer_1" data-name="Layer 1" xmlns="http://www.w3.org/2000/svg" viewBox="0 0 342.18 393.11"><defs><style>.cls-1{fill:#3eadeb;stroke:#fff;stroke-miterlimit:10;stroke-width:8px;fill-rule:evenodd;}</style></defs><title>Apple</title><path class="cls-1" d="M364.17,198.48c-9-56.4-44.44-87.91-99.76-92.34-24-1.92-45.77,4.74-63.92,20.52C146.08,83.51,51,105.84,35.77,197.52c-8.23,49.49.71,96,27.63,138.29,32.17,50.57,70.49,65.06,128.92,50.79a31.17,31.17,0,0,1,15.54.65c47.52,14,85.65,3.13,116.89-35.59C361,306.78,373.15,254.66,364.17,198.48Zm-34.47,3.87c-4.53,1.15-12.11-.92-15.2-4.45-12.8-14.56-24.7-30-36.17-45.63-2.13-2.9-2.42-9.55-.48-12.28,1.58-2.22,8-2.16,11.89-1.39,26.44,5.19,43.18,24.34,44.16,53.55C333.39,193.56,332.47,201.65,329.7,202.35Z" transform="translate(-28.82 -4)"/><path class="cls-1" d="M183,66.23C164.93,53.85,148.86,41,127,41,146.67,54.64,169,64.83,183.48,85.86,132.72,101.12,72.17,57.55,73.76,8.46c16.8,0,33.7-1.18,50.36.25C153.9,11.27,175.06,32.16,183,66.23Z" transform="translate(-28.82 -4)"/><path class="cls-1" d="M190.49,97c4.52-24.26,8.08-45.7,12.63-66.92a15.23,15.23,0,0,1,23-9.77c3.14,2,5.19,9.77,4,13.8-6.22,21.13-13.29,42.05-20.94,62.71-1.49,4-7,6.54-10.57,9.76Z" transform="translate(-28.82 -4)"/><path class="cls-1" d="M333.9,192.15c-.51,1.41-1.43,9.5-4.2,10.2-4.53,1.15-12.11-.92-15.2-4.45-12.8-14.56-24.7-30-36.17-45.63-2.13-2.9-2.42-9.55-.48-12.28,1.58-2.22,8-2.16,11.89-1.39C316.18,143.79,332.92,162.94,333.9,192.15Z" transform="translate(-28.82 -4)"/></svg>