<svg id="Layer_1" data-name="Layer 1" xmlns="http://www.w3.org/2000/svg" viewBox="0 0 342.89 393.43"><defs><style>.cls-1{fill:#f6de32;stroke:#fff;stroke-miterlimit:10;stroke-width:8px;}</style></defs><title>Cili</title><path class="cls-1" d="M349.5,109.19c-1.23-1.08-2.55-2.15-3.93-3.22,0-.06,0-.13,0-.18s-2.45-6.6-11.84-15.54c0,0,2.54-32.66,18.54-54.29l17.79-14.41s-8.22-20.69-26.5-4.12a335.65,335.65,0,0,0-18.9,51.22s-6.41,12.93-18.8,11.11a42.71,42.71,0,0,0-8.73.78c-21.88-5.6-49.95-2.24-66.22,40.76a220.48,220.48,0,0,0-7.16,24.91s-1.81,46-83.49,114.34c0,0-14.42,11.8-28.94,19.05,0,0-57.87,31.46-70.58,68.37a78.66,78.66,0,0,0-4.36,19.55,70.88,70.88,0,0,0,1.94,25.83s3.83,6.65,10.49.4c0,0,11.69-19.36,23-25,0,0,13.91-5.84,35.09-7.26,0,0,89.33-10.28,157.5-63.93,0,0,88.32-69.77,101.23-135.11C365.64,162.44,377.82,134.17,349.5,109.19Zm-65.56,13.2c-4.83,26-15.73,51.46-33.85,71.11-18.58,20.15-45.66,33.43-53.9,61.3-1.74,5.91-11,3.39-9.22-2.54,6.89-23.33,24.7-36.93,42.44-52.15,24.51-21,39.44-48.65,45.3-80.27C275.83,113.78,285.06,116.36,283.94,122.39Z" transform="translate(-32 -7)"/></svg>