<svg id="Layer_1" data-name="Layer 1" xmlns="http://www.w3.org/2000/svg" viewBox="0 0 290.8 360.93"><defs><style>.cls-1{fill:#74dc53;stroke:#fff;stroke-miterlimit:10;stroke-width:8px;}</style></defs><title>Vegetable</title><path class="cls-1" d="M160,155.34c-1.09,1.5-2.26,3.19-3.48,5.07C157.72,158.53,158.89,156.84,160,155.34Z" transform="translate(-74.68 -11.5)"/><path class="cls-1" d="M231.09,243.24q-1.36,1.72-2.79,3.46Q229.73,245,231.09,243.24Z" transform="translate(-74.68 -11.5)"/><path class="cls-1" d="M179.37,300.63c17.44-17.45,34.45-36.16,48.51-53.4l-37.21-31.44,44.47,22.32c-1.08,1.4-2.2,2.81-3.33,4.23,15.72-19.77,27.08-37.17,30-47.81,10-36.21-8.09-53.82-24.41-62.49-13.43-7.13-40.78-18-74,19.06-.45.51-.94,1.08-1.42,1.69.49-.61,1-1.18,1.42-1.69l43.76,38.13-50.68-28.72c-8,12.28-18.59,32.24-29.36,55.05l30.43,26.52-33.85-19.19C96,282.76,68.78,358,82.22,367.07,94.41,375.34,134.59,344.58,174,306l-23.58-19.92Z" transform="translate(-74.68 -11.5)"/><path class="cls-1" d="M160.34,154.86c.42-.57.83-1.1,1.22-1.6C161.17,153.76,160.76,154.3,160.34,154.86Z" transform="translate(-74.68 -11.5)"/><path class="cls-1" d="M227.88,247.23l.42-.53-.42.53Z" transform="translate(-74.68 -11.5)"/><path class="cls-1" d="M231.81,242.34l-.72.9Z" transform="translate(-74.68 -11.5)"/><path class="cls-1" d="M160,155.34l.36-.48Z" transform="translate(-74.68 -11.5)"/><path class="cls-1" d="M161.56,153.26c.13-.16.25-.32.38-.47C161.81,152.94,161.69,153.1,161.56,153.26Z" transform="translate(-74.68 -11.5)"/><path class="cls-1" d="M156.43,160.51h0s0-.06.06-.1A.61.61,0,0,0,156.43,160.51Z" transform="translate(-74.68 -11.5)"/><path class="cls-1" d="M356.76,90.47l-5.3-3.22c1,.08,2.06.17,3.09.29,4.21.49,7.29-2.21,6.9-6.05s-4.11-7.34-8.3-7.83a94.06,94.06,0,0,0-29.95,1.47l2.19-5.28c1.36-3.3-.76-7.62-4.75-9.63s-8.33-1-9.7,2.3l-7.69,18.55a175.8,175.8,0,0,0-33.53,17.77c6.8-16.54,11.11-36.29,6.65-56.25L285.61,30c2.1-2.85.83-7.28-2.83-9.89s-8.32-2.41-10.42.45l-2.74,3.74c-.72-1.37-1.48-2.73-2.3-4.09-2.21-3.65-6.92-5.59-10.51-4.33s-4.7,5.25-2.49,8.9A58.39,58.39,0,0,1,261.55,43c-3.17-2.36-7.34-2.66-9.79-.53-2.71,2.35-2.29,6.74,1,9.81l10,9.51a97.29,97.29,0,0,1-7.46,29.6c-.12-2.28-.35-4.62-.7-7a6.85,6.85,0,0,0-.17-1.18,88.22,88.22,0,0,0-8.54-26l3.23-23.53c.5-3.65-2.49-7.65-6.68-8.93s-8,.62-8.49,4.26l-1.12,8.19c-1.92-2.37-4-4.76-6.18-7.15-3-3.25-7.84-4.18-10.8-2.09s-2.92,6.43.09,9.68c11,11.87,17.47,23.43,21,34.22l-9.22-3.95c-4.08-1.74-8.24-.37-9.28,3.08-.88,2.93.77,6.41,3.8,8.47a10.18,10.18,0,0,0,1.72.94l16.22,6.94c2.51,27.74-12.8,47.53-13.8,48.78-.06.08-.09.17-.15.25s-.21.3-.29.45-.12.2-.17.3a2.92,2.92,0,0,0-.14.38c-.06.16-.12.32-.17.49s-.07.23-.09.34,0,.28-.05.41,0,.34-.05.52,0,.24,0,.36,0,.29,0,.43a4.81,4.81,0,0,0,.07.53,2.79,2.79,0,0,0,.07.38c0,.14.08.28.12.42s.11.36.18.54a2.79,2.79,0,0,0,.14.37c.06.14.14.28.21.41s.18.36.28.53a4.05,4.05,0,0,0,.21.35c.1.14.2.28.31.41a5.85,5.85,0,0,0,.38.49l.27.32c.13.14.26.26.4.39s.16.18.26.27.17.13.25.2.11.11.18.16a1.09,1.09,0,0,0,.17.13l.07.06.41.29s0,0,0,0a10.36,10.36,0,0,0,1.29.73s0,0,.05,0,.29.11.43.17.56.24.84.33l.12,0c.16,0,.33.07.5.11s.48.13.73.17l.16,0c.17,0,.32,0,.49,0s.45,0,.68,0h.21c.14,0,.29,0,.44,0s.42,0,.63-.08l.23,0,.4-.11c.19-.06.38-.11.56-.18l.25-.09.36-.19.47-.26.25-.17c.11-.08.19-.17.29-.25a2.15,2.15,0,0,0,.24-.18c.27-.26,18.53-17.28,43.11-21.79l15.27,16.88a10.61,10.61,0,0,0,1.83,1.6c2.88,1.95,6.53,2.29,9,.62,3-2.05,3-6.36.06-9.64l-9.35-10.34a58.34,58.34,0,0,1,22.63,6.73c4,2.09,8.35,1.16,9.81-2.08s-.58-7.59-4.52-9.68c-1.22-.65-2.44-1.22-3.65-1.79l8.1-6.88c2.73-2.33,2.34-6.72-.88-9.8s-8-3.71-10.76-1.39L305.22,111a75.24,75.24,0,0,0-23.44-1A159,159,0,0,1,314,93.24c.06,0,.14,0,.21-.08a107.63,107.63,0,0,1,15.06-4.31l21.17,12.8c3.85,2.33,8.37,1.7,10.11-1.38S360.61,92.81,356.76,90.47Z" transform="translate(-74.68 -11.5)"/></svg>